# xmcd
#
# Track frame offsets: 
#        150
#        13681
#        26746
#        40118
#        54354
#        68022
#        83028
#        97540
#        108025
#        119994
#        143950
#        159096
#        174868
#        187643
#        208152
#        224873
#        242154
#        256069
#        269093
#        286049
#        302212
#        316788
#
# Disc length: 4451 seconds
#
# Revision: 0
# Processed by: cddbd v1.5.2PL0 Copyright (c) Steve Scherf et al.
# Submitted via: ExactAudioCopyFreeDBPlugin 1.0
#
DISCID=29116116
DTITLE=Various Artist - The Complete Stax-Volt Singles, 1959-1975
DYEAR=2018
DGENRE=Soul
TTITLE0=The Dixie Nightingales - The Assassination
TTITLE1=The Dixie Nightingales - Hush Hush
TTITLE2=The Dixie Nightingales - I Don't Know
TTITLE3=The Stars of Virginia - Wade in the Water
TTITLE4=The Dixie Nightingales - Forgive These Fools
TTITLE5=The Jubilee Hummingbirds - Our Freedom Song (Free at Last)
TTITLE6=The Jubilee Hummingbirds - Press My Dying Pillow
TTITLE7=The Pattersonaires - God's Promise
TTITLE8=Rev Maceo Woods and The Chistian Tabernacle Baptist Church Choir
TTITLE8=Hello Sunshine
TTITLE9=Roebuck "Pop" Staples - Tryin' Time
TTITLE10=The Terry Lynn Community Choir - His Love Will Always Be
TTITLE11=Reverend W. Bernard Avant Jr. and The St. James Gospel Choir - 
TTITLE11=Dont Let the Green Grass Fool You (Don't Let the Devil Fool Y
TTITLE11=ou)
TTITLE12=The Rance Allen Group - There's Gonna Be a Showdown
TTITLE13=The Rance Allen Group - That Will Be Good Enough for Me
TTITLE14=Reverend Maceo Woods and The Christian Tabernacle Concert Choir
TTITLE14=The Magnificent Sanctuary Band (Marching on for the Man)
TTITLE15=Louise McCord - Better Get a Move On
TTITLE16=Charles May and Annette May Thomas - Satisfied
TTITLE17=The Rance Allen Group - I Got to Be Myself
TTITLE18=The People's Choir of Operation Push under the Direction of R
TTITLE18=everend Marvin Yancy - He Included Me
TTITLE19=The Rance Allen Group - We're the Salt of the Earth
TTITLE20=Lousie McCord - Reflections
TTITLE21=The Rance Allen Group - Ain't No Need of Crying
EXTD=
EXTT0=
EXTT1=
EXTT2=
EXTT3=
EXTT4=
EXTT5=
EXTT6=
EXTT7=
EXTT8=
EXTT9=
EXTT10=
EXTT11=
EXTT12=
EXTT13=
EXTT14=
EXTT15=
EXTT16=
EXTT17=
EXTT18=
EXTT19=
EXTT20=
EXTT21=
PLAYORDER=
